<?xml version="1.0" standalone="no"?>
<!DOCTYPE svg PUBLIC "-//W3C//DTD SVG 20010904//EN"
 "http://www.w3.org/TR/2001/REC-SVG-20010904/DTD/svg10.dtd">
<svg version="1.0" xmlns="http://www.w3.org/2000/svg"
 width="1194.000000pt" height="672.000000pt" viewBox="0 0 1194.000000 672.000000"
 preserveAspectRatio="xMidYMid meet">
<metadata>
Created by potrace 1.15, written by Peter Selinger 2001-2017
</metadata>
<g transform="translate(0.000000,672.000000) scale(0.100000,-0.100000)"
fill="#000000" stroke="none">
<path d="M4863 6405 c-186 -50 -334 -194 -387 -374 -20 -68 -21 -208 -1 -280
33 -126 116 -240 229 -313 169 -109 403 -109 572 0 153 100 244 265 244 444 0
149 -44 260 -146 368 -133 141 -335 202 -511 155z m210 -100 c169 -36 291
-151 333 -315 42 -165 -21 -342 -159 -445 -84 -63 -172 -89 -285 -83 -242 14
-414 210 -400 456 12 215 196 389 423 401 11 0 50 -6 88 -14z"/>
<path d="M4952 6228 c-17 -17 -17 -359 0 -376 31 -31 62 -14 176 101 114 114
131 144 100 175 -24 24 -53 11 -120 -55 l-68 -67 0 105 c0 113 -6 129 -50 129
-14 0 -31 -5 -38 -12z"/>
<path d="M4085 5181 c-83 -38 -135 -120 -135 -211 0 -240 326 -311 432 -95 23
47 29 91 17 145 -30 138 -188 220 -314 161z"/>
<path d="M5701 5174 c-138 -69 -168 -243 -62 -357 90 -98 252 -95 336 5 40 47
55 89 55 150 -1 171 -175 278 -329 202z"/>
<path d="M3676 4841 c-307 -162 -495 -524 -513 -986 -5 -135 -4 -141 18 -174
53 -76 51 -76 334 -79 l254 -3 3 -282 c3 -317 3 -313 79 -356 74 -42 159 -16
204 60 19 32 20 52 20 405 l0 370 -25 36 c-48 71 -56 73 -332 76 l-247 3 5 47
c17 134 74 316 126 397 39 61 107 145 118 145 6 0 48 -58 94 -129 46 -70 94
-135 107 -145 20 -14 59 -16 302 -16 295 0 322 4 347 49 20 39 12 91 -19 122
l-29 29 -237 0 -236 0 -16 38 c-8 20 -37 97 -64 171 -77 214 -97 240 -186 248
-40 4 -58 0 -107 -26z"/>
<path d="M6145 4856 c-16 -7 -38 -22 -48 -33 -10 -11 -50 -107 -90 -214 l-73
-194 -243 -5 -243 -5 -24 -28 c-33 -38 -33 -96 0 -134 l24 -28 292 -3 c256 -3
295 -1 317 13 14 9 63 75 109 146 46 71 88 129 94 129 13 0 94 -103 129 -165
52 -90 93 -230 114 -387 l6 -37 -247 -3 c-276 -3 -291 -7 -335 -78 -22 -34
-22 -42 -22 -405 0 -352 1 -372 20 -404 29 -49 67 -73 122 -78 54 -5 98 18
137 70 20 27 21 42 24 308 l3 279 240 0 c180 0 248 3 272 14 39 16 84 67 94
104 3 15 1 97 -5 182 -33 451 -214 783 -514 942 -58 30 -106 35 -153 14z"/>
<path d="M4746 4388 c-7 -13 -33 -80 -56 -150 l-42 -128 -142 0 c-126 0 -145
-2 -159 -18 -20 -22 -22 -53 -5 -70 9 -9 66 -12 197 -12 l186 1 59 178 c49
149 57 181 47 199 -16 30 -66 30 -85 0z"/>
<path d="M5149 4387 c-8 -18 1 -55 49 -197 l59 -175 183 -3 c193 -3 210 1 210
43 0 47 -25 55 -177 55 l-141 0 -42 128 c-23 70 -49 137 -56 150 -20 31 -71
31 -85 -1z"/>
<path d="M4330 3755 l0 -155 660 0 660 0 0 155 0 155 -660 0 -660 0 0 -155z"/>
<path d="M8656 1625 c-229 -48 -401 -221 -453 -458 -20 -89 -22 -306 -4 -397
44 -225 188 -379 406 -436 109 -28 317 -24 465 9 111 25 150 24 150 -3 0 -6 6
-10 14 -10 16 0 24 84 28 290 3 109 1 125 -14 128 -12 2 -30 -24 -68 -96 -140
-268 -291 -356 -448 -260 -108 66 -172 284 -172 588 0 247 38 435 104 523 37
50 123 97 175 97 121 -2 212 -83 321 -283 71 -131 85 -133 84 -12 -3 296 -4
315 -18 315 -7 0 -19 -7 -26 -15 -17 -20 -53 -19 -152 6 -110 27 -298 34 -392
14z"/>
<path d="M11160 1634 c-240 -47 -373 -244 -331 -489 31 -178 116 -251 396
-340 202 -65 273 -105 304 -168 48 -98 15 -199 -81 -248 -135 -69 -283 -26
-425 125 -60 63 -163 207 -163 227 0 5 -10 9 -22 9 l-23 0 10 -217 c8 -185 12
-218 26 -221 9 -1 20 8 27 23 14 31 32 32 173 6 306 -56 454 -30 584 103 91
92 109 144 110 306 0 117 -2 129 -29 188 -54 117 -155 181 -391 247 -70 20
-159 52 -197 71 -85 43 -108 76 -108 155 0 94 59 157 168 180 142 29 260 -49
401 -266 82 -125 87 -116 76 133 -6 130 -10 162 -21 162 -8 0 -17 -7 -20 -15
-8 -20 -53 -19 -149 5 -78 20 -265 34 -315 24z"/>
<path d="M7391 1608 c-4 -13 -26 -72 -49 -133 -126 -340 -267 -721 -295 -795
-17 -47 -50 -134 -73 -195 l-42 -110 -41 -3 c-33 -3 -41 -7 -41 -23 0 -18 8
-19 140 -19 133 0 140 1 140 20 0 18 -7 20 -66 20 -49 0 -65 3 -62 13 3 6 34
94 69 194 l64 183 180 0 180 0 63 -188 c34 -103 62 -191 62 -195 0 -4 -27 -7
-60 -7 -53 0 -60 -2 -60 -20 0 -20 5 -20 303 -18 261 3 302 5 302 18 0 10 -14
17 -44 20 -42 5 -44 6 -63 60 -11 30 -35 96 -54 145 -18 50 -83 227 -144 395
-121 331 -165 450 -212 578 l-31 82 -79 0 c-72 0 -79 -2 -87 -22z m9 -567 c38
-117 70 -217 70 -222 0 -5 -66 -9 -155 -9 -85 0 -155 2 -155 4 0 7 151 429
157 439 3 5 7 7 9 4 2 -2 35 -99 74 -216z"/>
<path d="M437 1478 c-12 -244 -9 -328 8 -328 17 0 17 0 75 152 73 189 129 253
243 273 l37 7 0 -606 0 -606 -75 0 c-68 0 -75 -2 -75 -20 0 -20 7 -20 334 -20
323 0 334 1 339 20 5 18 -1 19 -72 22 l-76 3 0 600 0 600 39 -3 c51 -4 107
-33 140 -72 32 -38 85 -149 121 -250 29 -80 46 -106 64 -95 11 6 8 286 -5 413
l-5 52 -543 0 -543 0 -6 -142z"/>
<path d="M1652 1598 c3 -20 10 -23 56 -26 l52 -3 0 -594 0 -594 -52 -3 c-46
-3 -53 -6 -56 -26 l-3 -22 505 0 c472 0 505 1 510 18 2 9 6 100 8 202 3 169 2
185 -14 188 -12 2 -22 -6 -29 -25 -92 -224 -234 -333 -434 -333 l-75 0 2 288
3 287 51 -1 c102 -3 156 -50 203 -176 17 -47 33 -74 44 -76 16 -3 17 17 17
272 0 269 0 276 -20 276 -13 0 -20 -7 -20 -18 0 -33 -60 -140 -95 -171 -38
-33 -100 -54 -148 -49 l-32 3 -3 278 -2 277 72 0 c181 0 267 -57 357 -237 32
-64 47 -83 62 -83 20 0 21 4 15 68 -3 37 -8 120 -12 185 l-6 117 -480 0 -479
0 3 -22z"/>
<path d="M2795 1610 c-13 -21 17 -40 61 -40 l44 0 0 -595 0 -595 -44 0 c-44 0
-74 -19 -61 -40 4 -7 171 -10 509 -10 l504 0 7 194 c4 107 4 199 1 205 -16 25
-34 8 -55 -48 -12 -33 -41 -86 -65 -119 -86 -117 -189 -172 -338 -180 l-88 -4
0 291 0 291 33 0 c53 0 105 -19 143 -52 40 -36 60 -71 85 -148 12 -41 22 -55
35 -55 18 0 19 13 19 270 0 239 -2 270 -16 273 -12 2 -22 -14 -39 -59 -41
-114 -124 -179 -229 -179 l-31 0 0 280 0 280 73 0 c176 0 275 -70 360 -253 25
-52 36 -67 51 -65 17 3 19 11 16 93 -1 50 -3 101 -5 115 -1 14 -3 55 -3 93
l-2 67 -479 0 c-323 0 -482 -3 -486 -10z"/>
<path d="M3950 1601 c0 -17 8 -20 48 -23 l47 -3 3 -602 2 -603 -50 0 c-43 0
-50 -3 -50 -20 0 -19 7 -20 131 -20 119 0 130 2 127 18 -2 12 -16 18 -51 22
-26 3 -47 8 -47 13 0 4 0 255 0 558 l0 552 29 -54 c375 -708 493 -931 535
-1011 l51 -98 133 0 132 0 0 625 0 625 50 0 c43 0 50 3 50 20 0 19 -7 20 -130
20 -122 0 -130 -1 -130 -19 0 -17 8 -20 50 -23 l51 -3 -1 -419 c0 -230 -1
-420 -2 -422 -2 -1 -66 117 -143 264 -76 147 -180 346 -231 442 l-91 175 -257
3 c-249 2 -256 2 -256 -17z"/>
<path d="M5500 1601 c0 -17 8 -20 53 -23 l52 -3 3 -602 2 -603 -55 0 c-48 0
-55 -2 -55 -20 0 -20 7 -20 291 -20 271 0 290 1 287 18 -2 13 -16 18 -53 22
l-50 5 -3 293 -2 292 180 0 180 0 0 -295 0 -295 -55 0 c-48 0 -55 -2 -55 -20
0 -20 7 -20 290 -20 281 0 290 1 290 19 0 17 -8 20 -50 23 l-50 3 0 600 0 600
50 3 c42 3 50 6 50 23 0 18 -9 19 -291 19 -271 0 -290 -1 -287 -17 2 -14 16
-19 53 -23 l50 -5 3 -277 2 -278 -180 0 -180 0 2 278 3 277 50 5 c37 4 51 9
53 23 3 16 -16 17 -287 17 -282 0 -291 -1 -291 -19z"/>
<path d="M9420 1600 c0 -17 7 -20 50 -20 l50 0 0 -605 0 -605 -50 0 c-43 0
-50 -3 -50 -20 0 -20 7 -20 286 -20 266 0 285 1 282 17 -2 14 -15 19 -51 21
l-47 3 0 287 c0 175 4 282 9 277 10 -11 291 -550 291 -559 0 -3 -18 -6 -40 -6
-33 0 -40 -3 -40 -20 0 -20 7 -20 301 -20 281 0 300 1 297 17 -2 14 -15 19
-50 21 l-47 3 -79 152 c-44 84 -143 276 -221 429 l-141 276 157 176 156 176
54 0 c47 0 53 2 53 20 0 20 -5 20 -162 18 -137 -3 -163 -5 -163 -18 0 -11 17
-16 69 -20 l68 -5 -247 -275 c-136 -151 -251 -279 -256 -284 -5 -6 -9 113 -9
277 l0 287 51 0 c43 0 50 3 47 18 -3 16 -26 17 -286 20 -277 2 -282 2 -282
-18z"/>
</g>
</svg>
